<svg width="190" height="169" xmlns="http://www.w3.org/2000/svg" stroke="null" style="vector-effect: non-scaling-stroke;" preserveAspectRatio="xMidYMid meet">
 <g stroke="null">
  <title stroke="null">background</title>
  <rect stroke="null" x="-1" y="-1" width="192" height="171" id="canvas_background" fill="none"/>
 </g>

 <g stroke="null">
  <title stroke="null">Layer 1</title>
  <g stroke="null" transform="translate(0,500) scale(0.10000000149011612,-0.10000000149011612) " fill="white" id="svg_1">
   <path stroke="null" d="m1037.26892,4859.55883c-3.21403,-4.973 -13.1483,-22.65478 -38.56833,-68.5169c-11.97956,-22.10223 -28.63407,-52.49279 -37.10741,-67.68807c-8.47335,-15.19528 -23.37475,-42.54679 -33.6012,-60.78112c-9.93427,-18.23434 -22.49819,-40.61284 -27.75751,-49.73001c-5.25932,-9.11717 -21.03727,-37.57379 -35.06212,-63.5439c-14.02485,-25.69384 -26.88096,-48.6249 -28.63407,-50.55884c-2.33747,-2.76278 -5.5515,0.82883 -14.31703,15.19528c-6.13587,10.22228 -12.56393,20.72084 -14.02485,22.93106c-1.46092,2.21022 -8.18116,13.53761 -14.9014,24.865c-6.72024,11.32739 -16.65451,27.62778 -21.62164,35.91612c-5.25932,8.28833 -15.77795,25.41756 -23.37475,38.12634c-7.59679,12.4325 -14.9014,22.65478 -16.07014,22.65478c-1.46092,0 -6.72024,-7.18322 -12.27174,-15.74784c-5.25932,-8.84089 -11.97956,-19.61573 -14.60922,-24.31245c-2.92184,-4.42045 -9.05771,-15.19528 -14.02485,-23.48362c-4.96713,-8.28833 -11.68737,-19.61573 -14.9014,-24.865c-3.21403,-5.24928 -14.02485,-22.65478 -23.66693,-38.6789c-9.93427,-16.02411 -19.86854,-32.04823 -22.49819,-35.91612c-2.62966,-3.86789 -6.42806,-9.946 -8.47335,-13.81389c-2.04529,-3.86789 -17.82324,-29.56173 -35.06212,-57.46579c-17.23888,-27.90406 -33.6012,-54.42673 -36.52304,-59.39973c-3.21403,-4.973 -14.9014,-24.03617 -26.29659,-42.82306c-11.68737,-18.78689 -25.12785,-40.88912 -29.8028,-48.90118c-4.96713,-8.28833 -10.51864,-16.57667 -12.56393,-18.51061c-2.04529,-1.93394 -3.50621,-4.14417 -3.50621,-5.52556c0,-1.93394 -177.06371,-290.92056 -253.90819,-414.69303c-38.56833,-62.16251 -43.82765,-71.0034 -44.11984,-75.70013c0,-2.76278 147.55309,-3.59161 728.99993,-3.59161c672.60835,0 728.99993,0.27628 728.99993,4.42045c0,2.4865 -8.76553,20.16828 -19.57635,39.50773c-19.86854,35.91612 -40.90581,74.04246 -89.99278,164.66159c-15.77795,29.00917 -37.98396,69.89829 -49.67134,91.17168c-11.68737,21.27339 -36.23086,66.58296 -54.63847,100.84141c-18.6998,34.25845 -42.9511,79.01546 -54.0541,99.46002c-21.91383,39.78401 -60.18997,110.23485 -117.75029,216.8781c-19.57635,36.46867 -47.62605,88.13263 -62.23526,114.6553c-14.31703,26.52267 -40.90581,75.70013 -59.02124,109.12974c-64.86492,119.90458 -89.70059,165.7667 -90.57715,166.59553c-0.58437,0.55256 -2.04529,-0.82883 -3.21403,-2.76278zm71.29298,-261.63511c11.39519,-21.54967 21.03727,-39.50773 21.03727,-40.06029c0,-0.55256 -2.92184,-1.65767 -6.72024,-2.76278c-9.05771,-1.93394 -25.12785,-9.11717 -34.47775,-14.919c-4.09058,-2.4865 -14.02485,-8.84089 -21.91383,-13.81389c-12.85611,-8.28833 -16.07014,-9.11717 -30.67936,-8.01206c-11.39519,0.82883 -22.20601,4.42045 -35.64649,11.05111c-18.99198,9.66972 -23.37475,12.70878 -41.19799,27.35151l-9.05771,7.18322l11.103,20.44456c37.3996,67.68807 64.86492,117.97063 68.66332,125.15386c9.3499,17.68178 9.05771,17.95806 33.89338,-28.45662c13.1483,-24.03617 33.30901,-61.60996 44.99639,-83.15963zm-370.48974,-73.4899c1.46092,-3.86789 7.59679,-13.81389 13.1483,-22.10223c5.5515,-8.56461 10.22645,-15.74784 10.22645,-16.57667c0,-0.55256 5.84369,-10.49856 13.1483,-22.10223c7.01242,-11.32739 14.9014,-24.865 17.53106,-30.11428c5.25932,-10.22228 10.51864,1.10511 -46.74949,-102.49908c-19.28417,-35.08728 -46.74949,-85.09357 -113.95189,-207.20837c-9.93427,-18.23434 -26.88096,-48.90118 -37.3996,-68.24062c-27.17314,-49.17745 -55.51502,-100.84141 -73.63045,-133.44219c-41.19799,-75.14757 -54.93066,-99.7363 -58.14468,-103.05163c-2.62966,-2.4865 -22.49819,-3.31533 -86.77875,-2.76278l-83.27254,0.82883l53.76192,87.02752c29.51062,47.79606 55.51502,90.89541 57.8525,95.31585c2.33747,4.69672 8.76553,15.19528 14.02485,23.48362c13.73266,21.27339 59.02124,94.48702 71.87735,116.03669c5.84369,9.946 24.83567,40.88912 42.36673,69.06946c17.23888,28.18034 33.89338,54.97929 36.52304,59.39973c2.62966,4.69672 11.103,17.95806 18.6998,29.83801c7.30461,11.87995 13.44048,22.10223 13.44048,22.65478c0,0.27628 7.01242,11.87995 15.77795,25.41756c8.47335,13.53761 18.6998,30.11428 22.79038,36.74495c16.07014,27.35151 19.86854,33.15334 26.88096,43.92818c4.38277,6.07811 7.59679,12.4325 7.59679,13.53761c0,1.38139 2.33747,5.52556 5.5515,9.11717c2.92184,3.59161 9.3499,13.53761 14.02485,21.82595c4.96713,8.28833 13.44048,22.3785 18.6998,31.21939c5.5515,8.84089 11.68737,19.06317 13.73266,22.93106c4.96713,8.56461 8.76553,8.28833 12.27174,-0.27628zm191.96511,-27.07523c25.42004,-20.16828 63.69619,-37.29751 96.12865,-43.6519c15.77795,-3.03906 20.4529,-2.76278 37.10741,1.38139c17.82324,4.69672 39.44489,13.53761 42.9511,17.95806c4.67495,5.80183 28.34188,19.61573 33.6012,19.61573c17.23888,0 42.65891,-30.66684 73.92264,-88.40891c11.103,-20.44456 33.6012,-62.16251 50.25571,-92.55307c42.65891,-78.4629 78.88977,-145.32214 116.87374,-215.49671c18.11543,-33.42962 42.07454,-77.63407 53.46973,-98.07863c38.56833,-70.72712 95.54428,-176.81781 95.54428,-177.92292c0,-1.10511 -985.24559,1.38139 -986.9987,2.4865c-0.29218,0.27628 9.3499,19.06317 21.91383,41.71795c12.56393,22.65478 27.17314,49.17745 32.43246,59.12346c5.25932,9.946 19.28417,35.36356 30.97154,56.63696c30.67936,55.53184 57.8525,105.26185 80.64288,146.42725c10.81082,19.892 27.17314,49.73001 36.52304,66.30668c9.3499,16.85295 25.12785,45.30956 35.06212,63.5439c18.6998,33.98217 41.49018,75.70013 72.46172,131.23197c9.64208,17.4055 28.0497,50.83512 40.61362,74.04246c12.85611,22.93106 24.2513,41.99423 25.71222,41.99423c1.46092,0 6.13587,-3.03906 10.81082,-6.35439z" id="svg_2"/>
  </g>
  <text font-style="normal" font-weight="bold" stroke="#000" transform="matrix(5.471587921852515,0,0,3.907136943299497,-854.1460163551001,-400.5359612239201) " xml:space="preserve" text-anchor="start" font-family="'Trebuchet MS', Gadget, sans-serif" font-size="6" id="svg_3" y="141.95313" x="157.06662" stroke-width="0" fill="#ffffff">ESCALATOR</text>
 </g>
</svg>